<?xml version="1.0" encoding="UTF-8"?>
<svg width="128px" height="128px" viewBox="0 0 128 128" version="1.1" xmlns="http://www.w3.org/2000/svg" xmlns:xlink="http://www.w3.org/1999/xlink">
    <!-- Generator: Sketch 52.4 (67378) - http://www.bohemiancoding.com/sketch -->
    <title>_ Collection / icons / Bedroom</title>
    <desc>Created with Sketch.</desc>
    <g id="_-Collection-/-icons-/-Bedroom" stroke="none" stroke-width="1" fill="none" fill-rule="evenodd">
        <g id="Group" transform="translate(41.000000, 48.000000)" fill="#4A4A4A" fill-rule="nonzero">
            <path d="M42,16.3674 L42,1 C42,0.44771525 41.5522847,0 41,0 C40.4477153,0 40,0.44771525 40,1 L40,4 L6,4 L6,1 C6,0.44771525 5.55228475,0 5,0 C4.44771525,0 4,0.44771525 4,1 L4,16.3674 C1.60777324,17.2075819 0.00500091615,19.4645258 0,22 L0,31 C0,31.5522847 0.44771525,32 1,32 C1.55228475,32 2,31.5522847 2,31 L2,30 L44,30 L44,31 C44,31.5522847 44.4477153,32 45,32 C45.5522847,32 46,31.5522847 46,31 L46,22 C45.9949991,19.4645258 44.3922268,17.2075819 42,16.3674 Z M6,6 L40,6 L40,16 L38,16 C38,13.790861 36.209139,12 34,12 L28,12 C25.790861,12 24,13.790861 24,16 L22,16 C22,13.790861 20.209139,12 18,12 L12,12 C9.790861,12 8,13.790861 8,16 L6,16 L6,6 Z M36,16 L26,16 C26.0012125,14.8959331 26.8959331,14.0012125 28,14 L34,14 C35.1040669,14.0012125 35.9987875,14.8959331 36,16 Z M20,16 L10,16 C10.0012125,14.8959331 10.8959331,14.0012125 12,14 L18,14 C19.1040669,14.0012125 19.9987875,14.8959331 20,16 Z M2,28 L2,22 C2.00253493,19.7919119 3.79191186,18.0025349 6,18 L40,18 C42.2080881,18.0025349 43.9974651,19.7919119 44,22 L44,28 L2,28 Z" id="Shape"></path>
        </g>
        <text id="卧室" font-family="PingFangSC-Regular, PingFang SC" font-size="10" font-weight="normal" fill="#1F1F1F">
            <tspan x="54" y="114">卧室</tspan>
        </text>
    </g>
</svg>