<svg t="1578014516054" class="icon" viewBox="0 0 1024 1024" version="1.1" xmlns="http://www.w3.org/2000/svg" p-id="3943" width="48" height="48"><path d="M884.363636 58.181818H128c-41.890909 0-75.636364 33.745455-75.636364 75.636364v686.545454c0 41.890909 33.745455 75.636364 75.636364 75.636364h17.454545v23.272727c0 16.290909 12.8 29.090909 29.09091 29.090909s29.090909-12.8 29.090909-29.090909v-23.272727H791.272727v23.272727c0 16.290909 12.8 29.090909 29.090909 29.090909S849.454545 934.4 849.454545 919.272727v-23.272727h34.909091c41.890909 0 75.636364-33.745455 75.636364-75.636364v-686.545454C960 91.927273 926.254545 58.181818 884.363636 58.181818z m-756.363636 58.181818h756.363636c9.309091 0 17.454545 8.145455 17.454546 17.454546v323.490909H672.581818c-1.163636-3.490909-2.327273-6.981818-4.654545-10.472727l-143.127273-197.818182c-9.309091-12.8-27.927273-16.290909-40.727273-6.981818-10.472727 8.145455-13.963636 20.945455-10.472727 32.581818-4.654545-3.490909-11.636364-6.981818-19.781818-6.981818-16.290909 0-29.090909 12.8-29.090909 29.090909v160.581818h-34.909091V250.181818c0-16.290909-12.8-29.090909-29.090909-29.090909s-29.090909 12.8-29.090909 29.090909v207.127273h-34.909091V203.636364c0-16.290909-12.8-29.090909-29.090909-29.090909s-29.090909 12.8-29.090909 29.090909v253.672727h-36.072728V250.181818c0-16.290909-12.8-29.090909-29.090909-29.090909s-29.090909 12.8-29.090909 29.090909v207.127273h-34.909091V133.818182c1.163636-9.309091 9.309091-17.454545 18.618182-17.454546z m353.745455 173.381819l122.181818 167.563636H482.909091V296.727273c0-2.327273 0-4.654545-1.163636-6.981818zM884.363636 837.818182h-34.909091V634.181818c0-16.290909-12.8-29.090909-29.090909-29.090909S791.272727 617.890909 791.272727 634.181818V837.818182h-34.909091V587.636364c0-16.290909-12.8-29.090909-29.090909-29.090909S698.181818 571.345455 698.181818 587.636364V837.818182h-23.272727V634.181818c0-16.290909-12.8-29.090909-29.090909-29.090909S616.727273 617.890909 616.727273 634.181818V837.818182H128c-9.309091 0-17.454545-8.145455-17.454545-17.454546V515.490909h791.272727v304.872727c0 9.309091-8.145455 17.454545-17.454546 17.454546z" p-id="3944" fill="#4A4A4A"></path></svg>