<?xml version="1.0" encoding="UTF-8"?>
<svg width="128px" height="128px" viewBox="0 0 128 128" version="1.1" xmlns="http://www.w3.org/2000/svg" xmlns:xlink="http://www.w3.org/1999/xlink">
    <!-- Generator: Sketch 52.4 (67378) - http://www.bohemiancoding.com/sketch -->
    <title>_ Collection / icons / Living Room</title>
    <desc>Created with Sketch.</desc>
    <g id="_-Collection-/-icons-/-Living-Room" stroke="none" stroke-width="1" fill="none" fill-rule="evenodd">
        <text id="客厅" font-family="PingFangSC-Regular, PingFang SC" font-size="10" font-weight="normal" fill="#1F1F1F">
            <tspan x="54" y="114">客厅</tspan>
        </text>
        <g id="futon" transform="translate(39.000000, 46.000000)" fill="#4A4A4A">
            <path d="M47,14 L46,14 L46,3 C46,1.34314575 44.6568542,0 43,0 L7,0 C5.34314575,0 4,1.34314575 4,3 L4,14 L3,14 C1.34314575,14 2.02906125e-16,15.3431458 0,17 L0,30 C1.3527075e-16,31.1045695 0.8954305,32 2,32 L2,35 C2,35.5522847 2.44771525,36 3,36 L7,36 C7.55228475,36 8,35.5522847 8,35 L8,32 L42,32 L42,35 C42,35.5522847 42.4477153,36 43,36 L47,36 C47.5522847,36 48,35.5522847 48,35 L48,32 C49.1045695,32 50,31.1045695 50,30 L50,17 C50,15.3431458 48.6568542,14 47,14 Z M6,3 C6,2.44771525 6.44771525,2 7,2 L43,2 C43.5522847,2 44,2.44771525 44,3 L44,14 L43,14 C41.3431458,14 40,15.3431458 40,17 L40,22 L10,22 L10,17 C10,15.3431458 8.65685425,14 7,14 L6,14 L6,3 Z M6,34 L4,34 L4,32 L6,32 L6,34 Z M46,34 L44,34 L44,32 L46,32 L46,34 Z M48,30 L2,30 L2,17 C2,16.4477153 2.44771525,16 3,16 L7,16 C7.55228475,16 8,16.4477153 8,17 L8,24 L42,24 L42,17 C42,16.4477153 42.4477153,16 43,16 L47,16 C47.5522847,16 48,16.4477153 48,17 L48,30 Z" id="Shape" fill-rule="nonzero"></path>
            <circle id="Oval" cx="35" cy="9" r="1"></circle>
            <circle id="Oval" cx="15" cy="9" r="1"></circle>
            <circle id="Oval" cx="25" cy="9" r="1"></circle>
            <circle id="Oval" cx="35" cy="15" r="1"></circle>
            <circle id="Oval" cx="15" cy="15" r="1"></circle>
            <circle id="Oval" cx="25" cy="15" r="1"></circle>
        </g>
    </g>
</svg>